<?xml version="1.0" encoding="UTF-8"?>
<svg id="Layer_1" xmlns="http://www.w3.org/2000/svg" version="1.1" viewBox="0 0 281.08 253.54">
  <!-- Generator: Adobe Illustrator 29.7.1, SVG Export Plug-In . SVG Version: 2.1.1 Build 8)  -->
  <defs>
    <style>
      .st0 {
        fill: #fff;
      }
    </style>
  </defs>
  <path class="st0" d="M9.75,161.52c7.62-1.22,13.41,3.49,14.08,10.96,1.34,14.88-2.25,34.74.15,48.82.68,4.02,4.5,8.01,8.54,8.85h216.05c4.4-1.11,8.03-4.94,8.65-9.46,2.01-14.57-1.32-33.17.03-48.21,1.28-14.25,20.44-15.08,23.31-1.35-1.89,30.65,11.35,75.8-31.69,82.37l-215.26.04C-10.78,248.45,2.25,202.13.52,171.13c.63-4.56,4.65-8.88,9.23-9.61Z"/>
  <path class="st0" d="M151.49,171.43c.49.56,4.73-3.08,5.44-3.63,10.51-8.11,24-21.1,34.73-27.65,13.31-8.12,26.6,6.94,13.43,19.01-14.7,13.48-38.27,31.44-54.73,43.19-6.67,4.76-9.65,7.32-17.78,2.49l-58.06-45.67c-9.07-8.77-1.43-22.96,11.17-19.66,15.05,9.18,27.65,22.18,42.45,31.91V9.06C128.14,4.32,135.58-.11,140.18,0c4.32.1,11.31,4.67,11.31,9.06v162.37Z"/>
</svg>